<?xml version="1.0" encoding="utf-8"?>
<!-- Generator: Adobe Illustrator 21.0.2, SVG Export Plug-In . SVG Version: 6.00 Build 0)  -->
<svg version="1.1" id="Layer_1" xmlns="http://www.w3.org/2000/svg" xmlns:xlink="http://www.w3.org/1999/xlink" x="0px" y="0px"
	 viewBox="0 0 462.5 88.5" style="enable-background:new 0 0 462.5 88.5;" xml:space="preserve">
<style type="text/css">
	.st0{fill:#FFFFFF;}
	.st1{fill:none;}
</style>
<g>
	<g>
		<path class="st0" d="M44.1,0C20.8,0,1.8,17.9,0,40.7l23.7,9.8c2-1.4,4.4-2.2,7-2.2c0.2,0,0.5,0,0.7,0L42,33.1c0-0.1,0-0.1,0-0.2
			c0-9.2,7.5-16.7,16.7-16.7c9.2,0,16.7,7.5,16.7,16.7c0,9.2-7.5,16.7-16.7,16.7c-0.1,0-0.3,0-0.4,0l-15,10.7c0,0.2,0,0.4,0,0.6
			c0,6.9-5.6,12.5-12.5,12.5c-6.1,0-11.1-4.3-12.3-10.1l-17-7c5.2,18.6,22.3,32.2,42.6,32.2c24.4,0,44.2-19.8,44.2-44.2
			C88.3,19.8,68.5,0,44.1,0z"/>
		<path class="st0" d="M27.7,67.1l-5.4-2.2c1,2,2.6,3.7,4.8,4.6c4.8,2,10.3-0.3,12.3-5.1c1-2.3,1-4.9,0-7.2c-1-2.3-2.8-4.1-5.1-5.1
			c-2.3-1-4.8-0.9-6.9-0.1l5.6,2.3c3.5,1.5,5.2,5.5,3.7,9C35.3,66.9,31.2,68.6,27.7,67.1z"/>
		<path class="st0" d="M69.8,32.8c0-6.1-5-11.1-11.1-11.1s-11.1,5-11.1,11.1c0,6.1,5,11.1,11.1,11.1S69.8,39,69.8,32.8z M50.3,32.8
			c0-4.6,3.7-8.4,8.4-8.4c4.6,0,8.4,3.7,8.4,8.4c0,4.6-3.7,8.3-8.4,8.3C54.1,41.2,50.3,37.4,50.3,32.8z"/>
	</g>
	<g>
		<path class="st0" d="M135.6,30.3l-3,5.2c-2.3-1.6-5.4-2.6-8.1-2.6c-3.1,0-5,1.3-5,3.6c0,2.8,3.4,3.4,8.4,5.2
			c5.4,1.9,8.5,4.2,8.5,9.1c0,6.8-5.3,10.6-13,10.6c-3.7,0-8.3-1-11.7-3.1l2.2-5.8c2.8,1.5,6.2,2.4,9.2,2.4c4.1,0,6-1.5,6-3.7
			c0-2.5-2.9-3.3-7.7-4.9c-5.4-1.8-9.1-4.2-9.1-9.7c0-6.2,5-9.8,12.1-9.8C129.3,27,133.3,28.6,135.6,30.3z"/>
		<path class="st0" d="M158.7,33.6v27.3h-7V33.6h-10.1v-6h27.2v6H158.7z"/>
		<path class="st0" d="M183.5,33.5v7.5h13.4v6h-13.4v7.8H199v6h-22.5V27.6H199v6H183.5z"/>
		<path class="st0" d="M214.6,54.4l-2.2,6.5h-7.3l12.5-33.3h7l12.8,33.3h-7.6l-2.3-6.5H214.6z M221.1,35.5l-4.5,13.3h9.2L221.1,35.5
			z"/>
		<path class="st0" d="M273.3,40.5l-9.1,19.5h-3.9l-9-19.3v20.3h-6.7V27.6h6.7l11.2,24.1l10.8-24.1h6.7v33.3h-6.7L273.3,40.5z"/>
		<path class="st0" d="M293.5,31.8c0,2.9-2.1,4.6-4.6,4.6c-2.5,0-4.6-1.8-4.6-4.6c0-2.9,2.2-4.6,4.6-4.6
			C291.3,27.1,293.5,28.9,293.5,31.8z M285,31.8c0,2.4,1.7,3.9,3.8,3.9c2.1,0,3.8-1.5,3.8-3.9c0-2.4-1.7-3.9-3.8-3.9
			C286.7,27.9,285,29.4,285,31.8z M288.9,29.4c1.2,0,1.6,0.6,1.6,1.3c0,0.6-0.4,1-0.8,1.3l1.1,2h-0.9l-0.9-1.8H288V34h-0.7v-4.6
			H288.9z M288.1,31.5h0.8c0.5,0,0.8-0.3,0.8-0.7c0-0.4-0.2-0.7-0.8-0.7h-0.8V31.5z"/>
	</g>
</g>
<path class="st1" d="M319.4,43.2c5.2,2,7.5,6.1,6.2,11.3c-0.8,3.2-3,4.9-5.9,5.8c-1.4,0.4-2.8,0.7-4.2,0.7c-3.9,0.1-8.3,0-12.2,0
	c-0.1,0,0-22.2,0-33.7c0,0,12.2-0.2,15,0.6c5.3,1.5,7.2,7.8,3.9,12.3C321.3,41.5,320.4,42.1,319.4,43.2z M306.4,58
	c3.5,0,6.8,0.2,10.1,0c3.6-0.2,5.9-2.6,6-5.7c0.1-3.7-1.6-6.1-5.4-6.5c-3.5-0.4-7.1-0.1-10.7-0.1C306.4,49.6,306.4,53.8,306.4,58z
	 M306.5,42.3c2.5,0,4.9,0.1,7.2-0.1c1.3-0.1,2.7-0.6,3.9-1.3c2.2-1.2,3.1-3.7,2.7-6.5c-0.4-2-2-3.8-4.5-4.1
	c-3.1-0.4-9.3-0.3-9.3-0.3C306.5,34.4,306.5,38.1,306.5,42.3z"/>
<path class="st1" d="M400.4,60.9c-1.2,0-2.1,0-3.1,0c0-10.3,0-20.5,0-30.9c-3.9,0-7.7,0-11.5,0c0-1.1,0-1.9,0-2.9
	c8.7,0,17.3,0,26.1,0c0,0.9,0,1.7,0,2.8c-3.7,0-7.5,0-11.4,0C400.4,40.3,400.4,50.5,400.4,60.9z"/>
<path class="st1" d="M420.2,58.2c5.6,0,10.9,0,16.4,0c0,0.9,0,1.7,0,2.7c-6.5,0-12.9,0-19.5,0c0-11.2,0-22.4,0-33.8c1,0,2,0,3.2,0
	C420.2,37.5,420.2,47.8,420.2,58.2z"/>
<path class="st1" d="M371.5,60.9c-1.2,0-2.1,0-3.1,0c0-10.3,0-20.5,0-30.9c-3.9,0-7.7,0-11.5,0c0-1.1,0-1.9,0-2.9
	c8.7,0,17.3,0,26.1,0c0,0.9,0,1.7,0,2.8c-3.7,0-7.5,0-11.4,0C371.5,40.3,371.5,50.5,371.5,60.9z"/>
<path class="st1" d="M346.7,27.1h-4.5c-2.7,7.4-6,16.5-8.7,23.7c-1.1,2.9-2.6,6.9-3.8,10.1h3.5c0,0,3.5-8.9,3.4-8.8
	c5-0.1,10.5,0,15.5,0c0.8,2.2,3.3,8.9,3.3,8.9h3.6c-0.2-0.5-0.3-1-0.4-1.2C354.9,49.6,350.4,37.5,346.7,27.1z M337.6,48.9
	c2.2-6.1,4.4-12.1,6.8-18.5c2.3,6.3,4.4,12.3,6.7,18.5C346.5,48.9,342.2,48.9,337.6,48.9z"/>
<g>
	<path class="st1" d="M443.4,27c-0.6,0-1.2,0.1-1.8,0.1c0,11.4,0,22.6,0,33.8c7,0,13.9,0,20.8,0c0-1,0-1.9,0-2.9
		c-5.9,0-11.7,0-17.5,0c0-4.4,0-8.6,0-13c5.3,0,10.4,0,15.6,0c0-1,0-1.8,0-2.8c-5.2,0-10.4,0-15.7,0c0-4.2,0-8.1,0-12.3
		c3.3,0,10.7,0,17.6,0V27C455.2,27,446.8,27,443.4,27z"/>
</g>
</svg>
